# xmcd
#
# Track frame offsets:
#	150
#	14389
#	33557
#	48289
#	61980
#	80118
#	99492
#	115906
#	135852
#	148794
#	163027
#	179022
#	196454
#	210319
#
# Disc length: 3007 seconds
#
# Revision: 0
# Processed by: cddbd v1.5.2PL0 Copyright (c) Steve Scherf et al.
# Submitted via: EasyCDDAExtractor 2010.6.0.0
#
DISCID=c30bbd0e
DTITLE=Various Artist - Mr Music Country  01 2011
DYEAR=2011
DGENRE=Country
TTITLE0=Alan Jackson - Ring of fire
TTITLE1=Dierks Bentley, Ronnie McCoury and Friends - Last call
TTITLE2=Angela Lidin and Arly Karlsen - Freedom calls
TTITLE3=Daniel Marion Hobbs - Next time
TTITLE4=Evan Westerlund - Waiting for my train
TTITLE5=Scott Whitaker - You're all I need
TTITLE6=Kacey Jones - It's gonna take one helluva man
TTITLE7=Trace Adkins - I came here to live
TTITLE8=Kenny Chesney and George Jones - Small y'all
TTITLE9=Brennen Leigh - In the Bighorn Mountains
TTITLE10=Curtis Potter - That's what I do best (bonus ver.)
TTITLE11=Kurt Wooldridge - On the Verge of going crazy
TTITLE12=Eric Heatherly - Another day rolled, another day rocked
TTITLE13=Chip Taylor and Carrie Rodrigues - I can't help it (if I'm still in lov
TTITLE13=e with you)
EXTD=
EXTT0=
EXTT1=
EXTT2=
EXTT3=
EXTT4=
EXTT5=
EXTT6=
EXTT7=
EXTT8=
EXTT9=
EXTT10=
EXTT11=
EXTT12=
EXTT13=
PLAYORDER=
